# xmcd
#
# Track frame offsets: 
#        150
#        34253
#        72908
#        102613
#        127545
#        153394
#        168072
#        206473
#        220600
#        238118
#
# Disc length: 3520 seconds
#
# Revision: 1
# Processed by: cddbd v1.5.2PL0 Copyright (c) Steve Scherf et al.
# Submitted via: ExactAudioCopy v1.0b3
#
DISCID=7f0dbe0a
DTITLE=Troy Andrews - Trombone Shorty's Swingin' Gate
DYEAR=2002
DGENRE=Jazz
TTITLE0=Fall - On
TTITLE1=Nora's Cooking
TTITLE2=Slippin' and Trippin'
TTITLE3=St. James Infirmary
TTITLE4=Swingin' Gate
TTITLE5=Ooh Poo Pah Doo
TTITLE6=Caribbean Second Line
TTITLE7=Four
TTITLE8=Zydeco Second Line
TTITLE9=Hit The Road Jack
EXTD=
EXTT0=
EXTT1=
EXTT2=
EXTT3=
EXTT4=
EXTT5=
EXTT6=
EXTT7=
EXTT8=
EXTT9=
PLAYORDER=
